<svg xmlns="http://www.w3.org/2000/svg" version="1.1" xmlns:xlink="http://www.w3.org/1999/xlink" xmlns:svgjs="http://svgjs.com/svgjs" width="1440" height="560" preserveAspectRatio="none" viewBox="0 0 1440 560"><g mask="url(&quot;#SvgjsMask1925&quot;)" fill="none"><g transform="translate(0, 0)" stroke-linecap="round" stroke="url(#SvgjsLinearGradient1926)"><path d="M260 167.2 L260 392.8" stroke-width="15"></path><path d="M280 254.46 L280 305.54" stroke-width="15"></path><path d="M300 112.05 L300 447.95" stroke-width="15"></path><path d="M320 190.22 L320 369.78" stroke-width="15"></path><path d="M340 173.98 L340 386.02" stroke-width="15"></path><path d="M360 218.9 L360 341.11" stroke-width="15"></path><path d="M380 243.66 L380 316.35" stroke-width="15"></path><path d="M400 186.24 L400 373.76" stroke-width="15"></path><path d="M420 206.99 L420 353.01" stroke-width="15"></path><path d="M440 106.72 L440 453.28" stroke-width="15"></path><path d="M460 127.5 L460 432.5" stroke-width="15"></path><path d="M480 194.92 L480 365.08" stroke-width="15"></path><path d="M500 176.66 L500 383.34" stroke-width="15"></path><path d="M520 158.37 L520 401.63" stroke-width="15"></path><path d="M540 113.43 L540 446.57" stroke-width="15"></path><path d="M560 198.16 L560 361.84" stroke-width="15"></path><path d="M580 116.13 L580 443.88" stroke-width="15"></path><path d="M600 178.03 L600 381.97" stroke-width="15"></path><path d="M620 220.65 L620 339.36" stroke-width="15"></path><path d="M640 134.48 L640 425.52" stroke-width="15"></path><path d="M660 203.83 L660 356.17" stroke-width="15"></path><path d="M680 106.47 L680 453.53" stroke-width="15"></path><path d="M700 211.87 L700 348.13" stroke-width="15"></path><path d="M720 227.51 L720 332.49" stroke-width="15"></path><path d="M740 256.44 L740 303.56" stroke-width="15"></path><path d="M760 213.18 L760 346.82" stroke-width="15"></path><path d="M780 152.18 L780 407.82" stroke-width="15"></path><path d="M800 204.45 L800 355.55" stroke-width="15"></path><path d="M820 199.39 L820 360.61" stroke-width="15"></path><path d="M840 143.85 L840 416.14" stroke-width="15"></path><path d="M860 111.69 L860 448.31" stroke-width="15"></path><path d="M880 143.34 L880 416.66" stroke-width="15"></path><path d="M900 128.99 L900 431.01" stroke-width="15"></path><path d="M920 210.91 L920 349.1" stroke-width="15"></path><path d="M940 234.27 L940 325.73" stroke-width="15"></path><path d="M960 243.72 L960 316.28" stroke-width="15"></path><path d="M980 257.95 L980 302.05" stroke-width="15"></path><path d="M1000 254.22 L1000 305.79" stroke-width="15"></path><path d="M1020 211.78 L1020 348.22" stroke-width="15"></path><path d="M1040 144.36 L1040 415.64" stroke-width="15"></path><path d="M1060 164.26 L1060 395.74" stroke-width="15"></path><path d="M1080 219.09 L1080 340.91" stroke-width="15"></path><path d="M1100 224.87 L1100 335.13" stroke-width="15"></path><path d="M1120 256.73 L1120 303.27" stroke-width="15"></path><path d="M1140 212.34 L1140 347.66" stroke-width="15"></path><path d="M1160 181.76 L1160 378.24" stroke-width="15"></path><path d="M1180 239.88 L1180 320.12" stroke-width="15"></path></g></g><defs><mask id="SvgjsMask1925"><rect width="1440" height="560" fill="#ffffff"></rect></mask><linearGradient x1="244.8" y1="280" x2="1195.2" y2="280" gradientUnits="userSpaceOnUse" id="SvgjsLinearGradient1926"><stop stop-color="rgba(191, 252, 249, 1)" offset="0.24"></stop><stop stop-color="rgba(253, 36, 90, 1)" offset="0.72"></stop></linearGradient></defs></svg>